HIERARCHY
ROOT Hips
{
  OFFSET -187.679 86.5976 -156.378
  CHANNELS 6 Xposition Yposition Zposition Zrotation Xrotation Yrotation
  JOINT LeftUpLeg
  {
    OFFSET 8.64259 1.95398 -2.38835
    CHANNELS 3 Zrotation Xrotation Yrotation
    JOINT LeftLeg
    {
      OFFSET 43.7702 0 0
      CHANNELS 3 Zrotation Xrotation Yrotation
      JOINT LeftFoot
      {
        OFFSET 40.6238 0 0
        CHANNELS 3 Zrotation Xrotation Yrotation
        JOINT LeftToeBase
        {
          OFFSET 12.7242 0 0
          CHANNELS 3 Zrotation Xrotation Yrotation
          End Site
          {
            OFFSET 0 0 0
          }
        }
      }
    }
  }
  JOINT RightUpLeg
  {
    OFFSET -8.2249 1.95398 -2.59336
    CHANNELS 3 Zrotation Xrotation Yrotation
    JOINT RightLeg
    {
      OFFSET 43.5653 0 0
      CHANNELS 3 Zrotation Xrotation Yrotation
      JOINT RightFoot
      {
        OFFSET 40.6238 0 0
        CHANNELS 3 Zrotation Xrotation Yrotation
        JOINT RightToeBase
        {
          OFFSET 12.7242 0 0
          CHANNELS 3 Zrotation Xrotation Yrotation
          End Site
          {
            OFFSET 0 0 0
          }
        }
      }
    }
  }
  JOINT Spine
  {
    OFFSET 0.165834 0.87714 6.61349
    CHANNELS 3 Zrotation Xrotation Yrotation
    JOINT Spine1
    {
      OFFSET 7.38963 1.71661e-005 0
      CHANNELS 3 Zrotation Xrotation Yrotation
      JOINT Spine2
      {
        OFFSET 11.9445 1.14441e-005 0
        CHANNELS 3 Zrotation Xrotation Yrotation
        JOINT Spine3
        {
          OFFSET 14.7254 4.19617e-005 0
          CHANNELS 3 Zrotation Xrotation Yrotation
          JOINT Spine4
          {
            OFFSET 10.9679 0 0
            CHANNELS 3 Zrotation Xrotation Yrotation
            JOINT RightShoulder
            {
              OFFSET 2.46616 -1.6653 3.69651
              CHANNELS 3 Zrotation Xrotation Yrotation
              JOINT RightArm
              {
                OFFSET 13.0012 0 0
                CHANNELS 3 Zrotation Xrotation Yrotation
                JOINT RightForeArm
                {
                  OFFSET 28.7848 1.52588e-005 0
                  CHANNELS 3 Zrotation Xrotation Yrotation
                  JOINT RightHand
                  {
                    OFFSET 26.5688 1.52588e-005 0
                    CHANNELS 3 Zrotation Xrotation Yrotation
                    End Site
                    {
                      OFFSET 0 0 0
                    }
                  }
                }
              }
            }
            JOINT LeftShoulder
            {
              OFFSET 2.38034 -1.29275 -3.7523
              CHANNELS 3 Zrotation Xrotation Yrotation
              JOINT LeftArm
              {
                OFFSET 16.3182 6.10352e-005 0
                CHANNELS 3 Zrotation Xrotation Yrotation
                JOINT LeftForeArm
                {
                  OFFSET 27.0901 0 0
                  CHANNELS 3 Zrotation Xrotation Yrotation
                  JOINT LeftHand
                  {
                    OFFSET 24.5451 1.52588e-005 0
                    CHANNELS 3 Zrotation Xrotation Yrotation
                    End Site
                    {
                      OFFSET 0 0 0
                    }
                  }
                }
              }
            }
            JOINT Neck
            {
              OFFSET 5.0226 -0.0266342 0
              CHANNELS 3 Zrotation Xrotation Yrotation
              JOINT Head
              {
                OFFSET 6.69363 2.86102e-005 0
                CHANNELS 3 Zrotation Xrotation Yrotation
                End Site
                {
                  OFFSET 0 0 0
                }
              }
            }
          }
        }
      }
    }
  }
}
MOTION
Frames:	12
Frame Time:	0.0416667
-317.291 84.2271 -297.943 -110.056 60.723 -74.7783 -164.448 -36.1735 94.3691 163.505 -76.6033 -171.464 135.952 -43.0075 -87.3788 -9.54275 -18.1768 1.38863 -168.236 37.8116 94.7397 -76.5736 -8.66975 -10.0523 72.2426 -6.38945 -1.76887 25.9347 -1.38849 3.02243 3.30903 12.8186 -90.9958 1.26485 6.22596 -1.73995 -10.3927 6.14333 -2.0132 -33.0483 6.45989 0.219409 -13.0356 6.45988 0.219402 99.0956 -3.56602 -93.2936 47.5782 33.6383 -17.2576 -41.4441 4.34949 -111.627 -0.827064 -0.0387396 1.81648 -97.4342 -30.8255 60.156 -35.6776 -4.46017 -71.2912 56.6953 -3.05491 -89.7597 -12.5735 0.254668 -8.01123 30.695 0.900278 18.6674 35.9929 -7.34222 -1.94745 
-312.904 85.1845 -293.497 -109.466 58.6203 -76.3222 -165.226 -20.6457 94.5452 -49.8635 -61.9787 -3.91454 152.3 -24.0148 -51.6376 -12.345 -16.1449 -2.8575 -169.324 38.6959 93.2754 -70.3631 -10.2313 -9.82727 66.3681 -4.41089 -1.2066 24.3033 -1.73545 3.14139 2.16035 12.8708 -90.2888 1.13285 4.20185 -0.419275 -10.5315 4.17932 -0.604131 -33.1191 4.1332 0.865088 -13.1064 4.13321 0.865087 99.4779 -7.27415 -91.0289 56.4795 22.5219 -13.2186 -42.4509 9.74664 -113.41 2.9344 0.0323869 -3.09503 -91.3688 -25.3595 69.0709 -37.8412 -11.8144 -79.1103 50.8874 -8.53457 -100.228 -9.97577 0.264679 -8.73498 37.2353 3.78125 14.6874 32.5128 -4.86881 -5.23277 
-308.247 87.1162 -287.756 -111.169 54.6222 -75.4325 -167.063 -11.4516 92.3728 -61.9462 22.1307 2.46526 116.568 38.3674 4.44558 -13.4153 -10.3487 -10.7341 -171.961 36.4809 92.1265 -60.0541 -13.2439 -9.59947 57.5818 -0.614121 -1.0229 20.8752 -2.57544 3.67017 0.730099 12.9026 -89.4528 1.05751 1.66384 1.12293 -10.6128 1.71166 1.0486 -33.1494 1.24951 1.57109 -13.1367 1.24953 1.57109 99.848 -14.6711 -88.3608 59.7505 9.68982 -9.8605 -41.8937 16.7483 -116.552 5.71078 -0.114414 -6.5121 -83.8736 -13.9952 81.6812 -35.5376 -19.9567 -80.3025 42.1738 -10.8561 -107.033 -5.52364 -0.135809 -3.16804 45.573 5.12897 4.04766 23.1117 0.967307 -6.43971 
-303.833 92.7035 -282.138 -112.654 50.6293 -72.3707 -168.676 -8.76866 92.2969 -64.6167 31.1684 5.84579 85.783 22.6468 19.9711 7.79253 -4.95306 -6.44945 -175.86 25.5918 91.723 -37.4404 -22.7466 -8.02215 53.9338 0.94952 0.658415 16.8899 -2.88059 2.47883 0.109543 12.5553 -89.2553 1.75678 0.505099 1.46193 -9.91487 0.56895 1.43828 -32.4435 0.0424368 1.54614 -12.4308 0.0424489 1.54613 98.8562 -26.6104 -89.1588 53.3696 9.03344 -3.14513 -34.6112 17.1261 -121.14 5.70702 -0.0537549 -5.37914 -80.9051 -2.8121 86.0739 -23.8643 -17.6146 -69.2208 42.8629 -14.548 -107.056 -6.49705 -0.139573 -2.71615 47.0589 2.6429 -7.4021 13.225 5.91482 -3.14984 
-298.028 95.669 -276.016 -108.896 47.4287 -71.8829 -170.631 -1.19351 95.0847 -60.7293 21.5978 7.37943 70.6956 6.40382 4.29591 24.4067 -0.993002 -1.93063 -175.568 23.842 92.8667 -36.842 -19.3618 -7.95174 59.8423 -0.993794 -0.717139 10.796 -3.96574 2.25713 -0.0219613 11.6309 -89.6432 3.61116 0.0988928 0.698261 -8.05996 0.129534 0.693218 -30.5936 -0.115542 0.695699 -10.581 -0.11553 0.695695 95.7461 -38.7948 -93.4205 38.8314 15.5854 0.00883566 -31.35 17.0002 -126.548 0.328326 -0.020664 -4.19646 -81.3187 -2.16225 84.8424 -9.03306 -6.70312 -54.55 39.1311 -18.7182 -106.536 -6.69382 -0.181907 -1.66572 44.0476 0.926586 -14.149 7.83208 8.21645 0.522133 
-291.081 93.6914 -268.313 -107.952 45.9715 -72.2335 -171.452 4.31083 94.9314 -61.9269 24.8507 7.59125 74.5116 9.7524 8.21682 35.5851 2.00685 2.07001 -177.813 26.6765 91.8634 -57.1408 -3.25559 -5.69112 66.8233 -2.9923 -0.579816 17.8673 -3.04391 3.33511 -0.253782 11.0059 -89.3423 4.86142 -0.23716 1.297 -6.81016 -0.179859 1.30617 -29.3411 -0.615987 1.16579 -9.32842 -0.615972 1.16579 82.7916 -54.9776 -109.891 14.1098 26.8089 -2.06899 -26.5302 13.0306 -130.726 -4.5189 -0.14194 -1.48554 -82.435 -4.66817 81.9692 -7.94 8.82393 -34.2142 35.3145 -20.1937 -104.901 -4.43362 -0.0971705 -3.29485 42.2178 -1.22338 -22.8257 4.63165 10.704 4.32037 
-283.556 91.332 -259.825 -107.942 45.3782 -72.5849 -172.766 14.1577 94.2182 -67.5936 20.8275 7.07544 77.7285 10.0529 3.90737 34.1443 2.65719 -2.52763 178.72 25.9972 90.4815 -78.8696 4.78735 -4.70245 68.9132 -3.7244 -1.54168 18.9555 -2.80538 3.28682 0.196487 10.3004 -89.6094 6.27028 0.557539 0.751696 -5.40073 0.590082 0.726424 -27.9346 0.305841 0.884497 -7.922 0.305855 0.884503 83.9387 -58.8758 -107.052 2.24129 30.3843 -8.60176 -23.5711 12.6553 -134.026 -4.66301 -0.252076 1.62259 -84.9943 -16.2792 79.4327 -12.0696 21.4508 -19.5073 35.078 -17.185 -94.9506 -5.642 -0.100055 -2.89303 39.0554 -2.30758 -20.5499 3.065 7.93708 5.60989 
-277.311 89.8603 -251.752 -107.676 45.9824 -75.7935 -174.088 22.0343 88.3344 -68.8086 18.7592 5.64562 77.4832 10.3621 5.58308 24.741 -1.41878 -0.427972 176.248 18.4585 86.3564 -89.8029 8.88045 -5.2806 67.6003 -3.76239 -2.09968 14.9791 -3.87707 3.92015 0.85128 9.4889 -89.5587 7.89009 1.89233 0.762053 -3.77966 1.92402 0.677995 -26.3216 1.57586 1.29566 -6.30891 1.57584 1.29565 92.828 -52.4951 -95.858 0.84102 30.8392 -14.0485 -22.3174 14.2555 -138.009 -3.3369 -0.163549 0.848153 -87.2583 -26.9171 77.8767 -24.0747 21.9594 7.68767 38.5621 -22.488 -100.34 -11.0252 0.190805 -7.74 33.6047 -3.93021 -17.1372 3.00571 3.92156 5.98696 
-271.909 91.3372 -245.247 -113.494 45.7449 -71.96 -174.926 20.5319 87.1656 -62.015 18.0864 5.57504 71.8784 7.46736 6.18338 21.0897 -2.6205 -0.987052 174.489 -1.5377 83.7918 -82.8311 -1.19623 -6.79969 64.3024 -2.72992 -1.7368 17.7222 -3.37849 4.10749 2.06486 8.87266 -90.0864 9.14026 4.07971 -0.460897 -2.52442 4.05548 -0.640313 -25.11 4.0293 0.788583 -5.09736 4.02931 0.788587 98.9435 -36.1406 -87.9383 2.11775 21.8696 -11.1946 -20.1572 16.3407 -141.635 -1.31844 -0.0552824 -0.199011 -87.4691 -35.0633 79.6672 -29.4373 24.7715 30.389 29.9995 -27.9985 -113.597 -10.094 0.253881 -9.23178 21.4848 -6.43126 -11.3599 4.70955 -2.24197 4.01532 
-265.618 94.6883 -237.928 -117.607 46.0136 -69.7501 -176.07 15.705 87.0309 -44.6645 21.2856 5.70841 60.3368 1.19732 3.25169 18.5819 -4.13476 0.225498 174.73 -17.5582 86.138 -65.7153 -10.6099 -8.55714 65.3612 -2.68239 -0.345335 20.8809 -3.38799 5.86639 2.57248 8.42565 -89.929 10.0385 5.15875 -0.291663 -1.62228 5.14091 -0.519046 -24.2369 5.00728 1.27628 -4.22429 5.00728 1.27627 97.416 -28.045 -92.0082 5.72332 6.94161 -11.7314 -26.977 24.2158 -137.197 2.95962 0.123692 -0.0382614 -83.1905 -32.0262 86.9291 -33.679 20.304 42.8615 30.8491 -33.2885 -121.928 -10.0423 0.417883 -11.8252 7.47304 -6.97742 -15.9387 7.87025 -3.14903 4.62525 
-256.885 97.1274 -229.229 -111.235 46.2629 -76.4515 -177.408 17.4605 87.2791 -26.934 32.946 6.45064 54.4999 -2.27101 -2.94638 19.188 -6.3817 5.55548 174.772 -15.729 86.883 -53.0187 -9.75384 -5.99891 67.6314 -3.46466 0.0600298 23.2643 -3.03901 6.36059 2.31261 7.70261 -89.3131 11.4606 4.92228 0.863613 -0.20108 4.95551 0.64561 -22.7981 4.43467 2.30566 -2.78549 4.43467 2.30566 95.9813 -28.3066 -94.9602 8.34232 -8.95179 -12.3284 -29.3922 27.0935 -132 2.71622 0.120066 0.294456 -83.3886 -31.7309 86.5333 -29.4643 12.446 43.8735 29.3779 -31.2686 -124.681 -7.50671 0.261443 -11.9918 1.76874 -6.54775 -19.8253 7.93867 -2.78564 5.55987 
-246.47 96.2333 -219.269 -102.831 42.7678 -82.2569 -178.309 30.994 89.2135 -42.2294 37.6499 7.15838 63.0559 2.22651 2.50369 21.1197 -5.14864 4.99606 176.323 -3.93223 94.693 -51.6349 0.721567 -1.55611 68.6275 -3.68936 -1.93663 28.354 -2.99396 10.012 1.50133 7.48302 -89.2462 11.8955 3.34075 1.14686 0.228412 3.38797 0.998569 -22.329 2.84165 2.09841 -2.31635 2.84163 2.0984 92.9272 -35.8493 -99.1315 10.3879 -15.6215 -3.33355 -30.86 29.4341 -130.777 2.41775 0.0966283 -0.371675 -86.6966 -39.7296 82.0473 -18.2007 8.81538 29.5023 26.9386 -27.0132 -124.961 -5.04137 -0.011769 -6.88836 12.7036 -7.06311 -13.4634 1.92048 -3.47835 2.1873 
